<?xml version="1.0" encoding="utf-8"?>
<!-- Generator: Adobe Illustrator 15.1.0, SVG Export Plug-In  -->
<!DOCTYPE svg PUBLIC "-//W3C//DTD SVG 1.1//EN" "http://www.w3.org/Graphics/SVG/1.1/DTD/svg11.dtd" [
	<!ENTITY ns_flows "http://ns.adobe.com/Flows/1.0/">
]>
<svg version="1.1"
	 xmlns="http://www.w3.org/2000/svg" xmlns:xlink="http://www.w3.org/1999/xlink" xmlns:a="http://ns.adobe.com/AdobeSVGViewerExtensions/3.0/"
	 x="0px" y="0px" width="87px" height="77px" viewBox="0 -2 87 77" enable-background="new 0 -2 87 77" xml:space="preserve">
<defs>
</defs>
<path fill-rule="evenodd" clip-rule="evenodd" fill="#054D81" d="M27.962,34.424c-2.362,0.511-4.702,1.13-6.989,1.874
	c-24.553,7.991-21.349,28.09-1.373,36.83c0,0-14.523-4.203-19.018-19.352C-3.912,38.629,18.56,28.392,35.373,26.561
	c1.932-0.21,3.713-0.388,5.355-0.537C35.589,27.348,31.126,30.356,27.962,34.424 M84.519,27.767l-14.482,47.15l-39.991-0.582
	l37.287-2.913l8.822-36.705c0,0-4.754-0.994-12.015-1.711c-3.786-4.155-9.033-6.955-14.928-7.59
	c6.189-0.299,8.508-0.021,8.508-0.021l-8.239-23.97l13.754,24.262c0,0,10.528,0.666,15.605,1.332S84.519,27.767,84.519,27.767z"/>
<path fill-rule="evenodd" clip-rule="evenodd" fill="#005E25" d="M9.135,23.689l19.476-0.25L49.304,0L34.78,23.325l19.726-0.333
	c0,0-17.853,0.916-27.882,3.413c-10.029,2.497-15.023,5.868-15.023,5.868L9.135,23.689z"/>
<path fill-rule="evenodd" clip-rule="evenodd" fill="#005E25" d="M57.242,70.095l6.483,0.089l-7.887,0.561
	C56.314,70.543,56.782,70.326,57.242,70.095 M18.406,70.579c0,0-13.067-5.285-13.483-15.855
	c-0.416-10.57,11.653-15.064,15.065-16.313l4.183,31.231l11.31,0.154c1.616,0.867,3.344,1.552,5.156,2.026L21.684,73.17
	l-6.866-27.653c0,0-8.25,3.475-7.418,12.796C8.688,64.293,14.319,67.295,18.406,70.579z"/>
<rect x="44.25" y="15.209" fill-rule="evenodd" clip-rule="evenodd" fill="#005E25" width="7.533" height="1.644"/>
<path fill-rule="evenodd" clip-rule="evenodd" fill="#005E25" d="M46.648,27.822c11.661,0,21.114,9.454,21.114,21.115
	s-9.453,21.114-21.114,21.114s-21.114-9.453-21.114-21.114S34.987,27.822,46.648,27.822"/>
<path fill-rule="evenodd" clip-rule="evenodd" fill="#FFFFFF" d="M38.906,52.016l-4.599,1.529l4.673-12.086h4.235l4.343,11.017
	c0,0,0.749,3.337-2.823,4.363c0,0-2.802,0.149-4.931,0.172c-2.128,0.021-3.316,1.561-3.765,2.909
	c-0.449,1.347-0.535,1.561-0.535,1.561h-4.364c0,0,1.22-3.208,1.711-3.957c0.492-0.748,2.289-3.808,6.396-3.872
	c4.107-0.063,3.615,0.043,3.947-0.299c0.331-0.343,0.3-0.974,0.064-1.316c-0.235-0.342-2.204-5.957-2.204-5.957L38.906,52.016z"/>
<path fill-rule="evenodd" clip-rule="evenodd" fill="#FFFFFF" d="M45.029,58.055c0,0,2.781-1.604,3.081-2.951l2.448,6.404
	l-4.3-0.064L45.029,58.055z"/>
<path fill-rule="evenodd" clip-rule="evenodd" fill="#FFFFFF" d="M50.234,46.665l0.956-3.878c0,0,0.243-1.068,2.173-1.162
	s11.017,0,11.017,0l-0.618,2.66c0,0-0.318,1.199-2.38,1.144l-8.899-0.075l-1.489-0.047l1.489,0.047l-1.489-0.047L50.234,46.665z"/>
<path fill-rule="evenodd" clip-rule="evenodd" fill="#FFFFFF" d="M58.815,47.096l-0.693,2.754c0,0-0.075,0.862-1.536,0.993
	c-1.462,0.131-3.129-0.094-3.129-0.094l-0.806,2.998c0,0-0.768,1.442-2.154,1.442s-2.042-0.45-1.799-2.042
	c0.244-1.593,1.256-5.115,1.256-5.115s0.3-0.992,2.21-0.992C54.075,47.04,58.815,47.096,58.815,47.096"/>
<path fill-rule="evenodd" clip-rule="evenodd" fill="#FFFFFF" d="M38.402,36.51c0,0,1.554-0.761,3.389,1.199
	c0,0,0.787,0.761,0.965,2.315l-0.084,1.355c0,0-0.313-2.43-1.939-3.566c0,0,1.074,0.875,1.585,3.461
	C38.446,40,40.11,38.128,38.402,36.51"/>
<path fill-rule="evenodd" clip-rule="evenodd" fill="#FFFFFF" d="M42.807,41.347c0,0,0.943-1.777,3.029-2.768
	c2.085-0.991,5.119-1.46,7.538,1.751c-4-0.036-2.87,4.093-10.113,1.355c0,0,1.793-2.189,6.067-2.356c0,0-2.877-0.766-6.214,1.778
	L42.807,41.347z"/>
</svg>
